<?xml version="1.0" encoding="UTF-8"?>
<level>
  <owner>Fistachka</owner>
  <repo>babkiweb3</repo>
  <version>v1.0.8</version>
  <next number="1" owner="Fistachka" repo="fiksikiweb"/>
  <readme>
    <ru>56d68f1ac6d668a2ca6a9aa38ace1aa09a62c4f20e0f0c90c3691b907519155b</ru>
    <en>9ad43983ed5b88c2097262ac7b8c5b1dd9c4ef41f85a1ae9752c22b95f30f5c2</en>
  </readme>
  <license>b1b99f5538d1fd3702219bff50c665196dfa42f6ee755c37fe41a6178d6bc6e5</license>
  <exercise number="1">
    <scale>major</scale>
    <bpm>147</bpm>
    <lowestNote>18</lowestNote>
    <tonalities>1</tonalities>
    <video name="17t.mp4" size="1107335" type="video/mp4" volume="0.5">4764b9b730a3e2ed92cd5cb15dd2e193554e637fd69b1ab027ee1ca3128c2bc1</video>
    <notes>
      <note number="1" values="38" ticks="36" durationTicks="37" ppq="96" velocity="0.843"/>
      <note number="2" values="38" ticks="85" durationTicks="45" ppq="96" velocity="0.906"/>
      <note number="3" values="58" ticks="131" durationTicks="33" ppq="96" velocity="0.866"/>
      <note number="4" values="58" ticks="180" durationTicks="46" ppq="96" velocity="0.913"/>
      <note number="5" values="68" ticks="229" durationTicks="34" ppq="96" velocity="0.913"/>
      <note number="6" values="68" ticks="277" durationTicks="57" ppq="96" velocity="0.913"/>
      <note number="7" values="58" ticks="325" durationTicks="96" ppq="96" velocity="0.913"/>
    </notes>
  </exercise>
  <exercise number="2">
    <scale>major</scale>
    <bpm>147</bpm>
    <lowestNote>18</lowestNote>
    <tonalities>1</tonalities>
    <video name="18t.mp4" size="1164444" type="video/mp4" volume="0.5">3bb8671e4f8efbb4f4e9001b86af7860f9baafce55ec0fd6bde40986f97f203f</video>
    <notes>
      <note number="1" values="38" ticks="40" durationTicks="37" ppq="96" velocity="0.843"/>
      <note number="2" values="38" ticks="89" durationTicks="45" ppq="96" velocity="0.906"/>
      <note number="3" values="58" ticks="135" durationTicks="35" ppq="96" velocity="0.858"/>
      <note number="4" values="58" ticks="184" durationTicks="55" ppq="96" velocity="0.906"/>
      <note number="5" values="68" ticks="233" durationTicks="37" ppq="96" velocity="0.906"/>
      <note number="6" values="68" ticks="281" durationTicks="36" ppq="96" velocity="0.906"/>
      <note number="7" values="58" ticks="335" durationTicks="48" ppq="96" velocity="0.906"/>
    </notes>
  </exercise>
  <exercise number="3">
    <scale>chromaticmajor</scale>
    <bpm>147</bpm>
    <lowestNote>18</lowestNote>
    <tonalities>1</tonalities>
    <video name="19t.mp4" size="916635" type="video/mp4" volume="0.5">591f39ce2ab3fee1b870253982b76cc027767a7eb3b88e0b02dc4555e39d02f1</video>
    <notes>
      <note number="1" values="188" ticks="42" durationTicks="40" ppq="96" velocity="0.843"/>
      <note number="2" values="188" ticks="96" durationTicks="38" ppq="96" velocity="0.906"/>
      <note number="3" values="978" ticks="141" durationTicks="45" ppq="96" velocity="0.866"/>
      <note number="4" values="978" ticks="194" durationTicks="43" ppq="96" velocity="0.913"/>
      <note number="5" values="68" ticks="238" durationTicks="85" ppq="96" velocity="0.913"/>
      <note number="6" values="188" ticks="334" durationTicks="87" ppq="96" velocity="0.913"/>
    </notes>
  </exercise>
  <exercise number="4">
    <scale>major</scale>
    <bpm>147</bpm>
    <lowestNote>18</lowestNote>
    <tonalities>1</tonalities>
    <video name="20t.mp4" size="2912701" type="video/mp4" volume="0.5">5e336dad4547536c6bb6def1a8746cdaf677863c48488725f3030b561c6d3c51</video>
    <notes>
      <note number="1" values="78" ticks="36" durationTicks="35" ppq="96" velocity="0.843"/>
      <note number="2" values="78" ticks="88" durationTicks="45" ppq="96" velocity="0.906"/>
      <note number="3" values="68" ticks="133" durationTicks="40" ppq="96" velocity="0.858"/>
      <note number="4" values="78" ticks="181" durationTicks="42" ppq="96" velocity="0.906"/>
      <note number="5" values="188" ticks="230" durationTicks="78" ppq="96" velocity="0.906"/>
      <note number="6" values="188" ticks="325" durationTicks="94" ppq="96" velocity="0.906"/>
    </notes>
  </exercise>
  <exercise number="5">
    <scale>major</scale>
    <bpm>147</bpm>
    <lowestNote>18</lowestNote>
    <tonalities>1</tonalities>
    <video name="21t.mp4" size="1954885" type="video/mp4" volume="0.5">0dea15f66fa4edc3245200958f5c96713553bf1b45a78b7d8f09fad96c3f9174</video>
    <notes>
      <note number="1" values="188" ticks="30" durationTicks="77" ppq="96" velocity="0.8"/>
      <note number="2" values="188" ticks="126" durationTicks="75" ppq="96" velocity="0.8"/>
      <note number="3" values="188" ticks="222" durationTicks="96" ppq="96" velocity="0.8"/>
      <note number="4" values="58" ticks="374" durationTicks="37" ppq="96" velocity="0.8"/>
      <note number="5" values="48" ticks="420" durationTicks="96" ppq="96" velocity="0.8"/>
      <note number="6" values="28" ticks="511" durationTicks="96" ppq="96" velocity="0.8"/>
      <note number="7" values="38" ticks="608" durationTicks="96" ppq="96" velocity="0.8"/>
      <note number="8" values="18" ticks="705" durationTicks="96" ppq="96" velocity="0.8"/>
    </notes>
  </exercise>
  <exercise number="6">
    <scale>major</scale>
    <bpm>147</bpm>
    <lowestNote>18</lowestNote>
    <tonalities>1</tonalities>
    <video name="22t.mp4" size="2057825" type="video/mp4" volume="0.5">28b5605a399ff0169b9401670d19eb8d769dc39fd66c9c4bdfbe0ebce72b33a5</video>
    <notes>
      <note number="1" values="78" ticks="55" durationTicks="449" ppq="192" velocity="0.78"/>
      <note number="2" values="78" ticks="534" durationTicks="94" ppq="192" velocity="0.866"/>
      <note number="3" values="68" ticks="633" durationTicks="140" ppq="192" velocity="0.772"/>
      <note number="4" values="78" ticks="728" durationTicks="92" ppq="192" velocity="0.835"/>
      <note number="5" values="188" ticks="824" durationTicks="145" ppq="192" velocity="0.764"/>
      <note number="6" values="58" ticks="1016" durationTicks="157" ppq="192" velocity="0.898"/>
      <note number="7" values="58" ticks="1208" durationTicks="192" ppq="192" velocity="0.8"/>
    </notes>
  </exercise>
  <exercise number="7">
    <scale>minor</scale>
    <bpm>147</bpm>
    <lowestNote>18</lowestNote>
    <tonalities>1</tonalities>
    <video name="23t.mp4" size="1838234" type="video/mp4" volume="0.5">dcca653a1a52dc0122cd7596a288e8c9b0a29e2ef1bed1bc10d1d801f4f0302b</video>
    <notes>
      <note number="1" values="188" ticks="25" durationTicks="125" ppq="96" velocity="0.882"/>
      <note number="2" values="188" ticks="171" durationTicks="46" ppq="96" velocity="0.906"/>
      <note number="3" values="78" ticks="216" durationTicks="95" ppq="96" velocity="0.787"/>
      <note number="4" values="68" ticks="314" durationTicks="92" ppq="96" velocity="0.827"/>
      <note number="5" values="58" ticks="409" durationTicks="93" ppq="96" velocity="0.78"/>
      <note number="6" values="58" ticks="505" durationTicks="93" ppq="96" velocity="0.85"/>
      <note number="7" values="68" ticks="600" durationTicks="94" ppq="96" velocity="0.748"/>
      <note number="8" values="78" ticks="703" durationTicks="92" ppq="96" velocity="0.8"/>
    </notes>
  </exercise>
  <exercise number="8">
    <scale>major</scale>
    <bpm>147</bpm>
    <lowestNote>58</lowestNote>
    <tonalities>1</tonalities>
    <video name="24t.mp4" size="2914858" type="video/mp4" volume="0.5">495e20b4266e6e59249fe77ef3133704d1ddbe36b8731b5ec86320e0e8e72d19</video>
    <notes>
      <note number="1" values="288" ticks="55" durationTicks="240" ppq="96" velocity="0.772"/>
      <note number="2" values="188" ticks="295" durationTicks="48" ppq="96" velocity="0.858"/>
      <note number="3" values="78" ticks="343" durationTicks="48" ppq="96" velocity="0.693"/>
      <note number="4" values="68" ticks="391" durationTicks="45" ppq="96" velocity="0.772"/>
      <note number="5" values="588" ticks="438" durationTicks="80" ppq="96" velocity="0.724"/>
      <note number="6" values="588" ticks="553" durationTicks="83" ppq="96" velocity="0.819"/>
      <note number="7" values="588" ticks="706" durationTicks="191" ppq="96" velocity="0.819"/>
    </notes>
  </exercise>
</level>
